<svg id="Layer_1" data-name="Layer 1" xmlns="http://www.w3.org/2000/svg" width="575.94" height="683.72" viewBox="0 0 575.94 683.72">
  <defs>
    <style>
      .cls-1, .cls-2, .cls-3 {
        fill: #c8b289;
      }

      .cls-2 {
        stroke: #c8b289;
        stroke-miterlimit: 10;
      }

      .cls-3 {
        font-family: Marion-Regular, Marion;
        font-size: 100px;
        letter-spacing: .05em;
      }
    </style>
  </defs>
  <text class="cls-3" transform="translate(22.98 653.72)"><tspan x="0" y="0">MABO VET</tspan></text>
  <g>
    <path class="cls-2" d="M528.75,318.3c16.8-74.27,16.35-143.4,13.45-209.47-.63-14.39-1.41-26.1-1.93-33.36-.06-.36-.28-1.45-1.23-2.36-.8-.76-1.68-.99-2.05-1.07-55.69-8.93-110.35-23.58-162.73-44.27-27.9-11.02-56.28-28.64-87.22-27.19-29.09,1.36-62.04,20.12-89.55,30.45-30.66,11.51-62.29,21.37-94.23,28.77-18.57,4.3-39.43,6.22-57.24,10.76-3.91,1-7.02,1.76-7.71,6.29-.56,3.66-.92,10.86-1.1,14.9-3.12,66.4-1.3,146.5,10.36,211.73,20.19,112.99,90.26,190.95,191,241,9.66,4.8,43.39,21.1,52.18,20.9,6.09-.14,32.01-12.51,39.18-15.9,99.67-47.28,173.9-120.93,198.84-231.16ZM289.76,554.19c-104.62-37.68-197.16-113.44-224.85-225.07-17.01-68.59-17.41-139.13-15.63-209.29.33-12.84-.95-25.79,1-38.5,48.48-6.03,96.38-18.72,142.21-35.29,29.6-10.7,69.57-33.06,100.25-32.84,26.62.19,60.96,20.15,86.25,29.84,48.12,18.43,99.1,31.6,150.11,39.39,2.15,10.27.78,20.94,1.1,31.4,3.41,111.02,2.95,234.85-70.99,324.93-44.04,53.66-104.67,91.58-169.45,115.43Z"/>
    <path class="cls-2" d="M553.1,381.4c-8.09,7.6-10.45,16.7-11.19,16.39-1.05-.44,5.05-18.26,12.65-37.28,4.03-10.1,4.23-9.95,5.63-13.85,3.32-9.3,6.63-23.2,5.65-42.35-12.5,16.16-17.38,30.37-19.49,40.51-1.74,8.33-1.38,12.79-3.24,23.39-2.88,16.43-7.88,29.27-11.68,37.6-.32.42-.71.83-.94.74-.36-.14-.2-1.38-.16-1.73.37-3.02.83-14.56,0-22-.65-5.77-2.37-9.72-2.96-11.04-1.52-3.4-3.31-5.97-4.67-7.69-4.17,7.28-5.65,13.77-6.25,17.85-1.23,8.38.2,15.03,1.13,20.63.95,5.71,4.72,12.98,5.32,17.72.82,6.56-12.29,26.86-17.56,32.04,2-5.74,3.25-11.54,3.4-17.34.13-5.08.14-11.03-3.22-17.35-1.46-2.74-3.13-4.77-4.4-6.11-1.28,1.67-3.02,4.22-4.51,7.58-2.83,6.36-3.03,11.95-3.26,14.74-.8,9.44,2.62,22.49.77,30.77-1.41,6.31-22.02,26.29-27.78,31.22-.98.84-6.25,5.19-7.01,4.48,10-12.56,19.58-29.64,12.5-45.99-9.43,9.56-16.31,21.73-19.04,34.96-.97,4.68-.76,10.25-1.67,14.33-1.12,5.01-18.9,14.01-24.12,16.88,0,0-14.64,6.14-31.67,15.38-.61.33-2.14,1.18-2.01,1.94.24,1.42,6.18,2.21,8.51,1.59,7.76-2.07,30.15-18.19,35.01-18.03,1.56.05,3.87,2.43,5.79,3.15,15.14,5.71,32.97,8.53,48.21,1.81l-9.21-6.81c-11.15-7.68-23.66-4.84-36.3-4.69,6.16-2.67,16.25-12.35,21.95-14.05,6.26-1.87,18.29.17,25.53-.47,11.66-1.04,24.64-6.72,32.51-15.49-4.98-2.04-16.27-5.81-29.67-2.67-5.07,1.19-9.23,3.08-12.39,4.89.85-1.37,2.08-3.26,3.67-5.43,2.79-3.81,5.17-6.4,7.87-9.3,7.82-8.39,11.72-12.7,13.53-13.47,2.88-1.22,9.97-1.22,13.83-2.17,15.89-3.94,27.52-11.62,37.14-24.84-16.47-2.01-25.7,1.67-31.17,5.71-3.74,2.77-11.17,9.74-12.02,8.93-.13-.13-.07-.42,0-.65,7.01-15.97,15.77-25.42,22.61-31.15,11.56-9.67,22.27-12.57,30.13-25.47,4.22-6.92,5.8-13.72,6.47-18.35-6.74,1.24-15.21,3.99-22.25,10.59Z"/>
    <path class="cls-2" d="M519.28,106.74c-.09-5.96-.21-10.89-.29-14.18-65.75-10.33-115.34-26.41-149.02-39.51-38.12-14.82-66.58-34.04-103.5-23.04-21.51,6.41-44.2,18.29-65.71,26.29-29.08,10.81-60.2,20.7-90.51,27.49-14.61,3.27-29.38,5.97-44.25,7.75-.69.08-4.07.44-4.29,1.67,0,.02,0,.03,0,.04,0,.08-.01.39-.01.47-2.76,97.41,4.73,188.44,12.23,220.39,26.51,112.86,109.77,187.67,215.82,226.74,99.86-37.52,184.44-109.55,213.21-215.34,10.62-39.06,17.64-131.04,16.33-218.76ZM314.59,518.15c-4.79,2.22-21.74,10.26-25.77,10.09-2.99-.13-13.72-5.22-17.26-6.77-118.59-51.87-181.89-136.55-196.31-265.69-5.68-50.87-3.31-101.45-2.58-152.56,47.44-8.18,93.89-21.17,138.82-38.18,15.87-6.01,31.66-13.88,47.5-19.5,45.17-16.02,64.33,1.74,104,17.5,46.59,18.5,94.76,31.44,144.14,40.35.44,11.45-.2,22.97.07,34.44,2.19,93.42-.15,196.08-57.52,274.39-32.54,44.42-85.33,82.86-135.08,105.92Z"/>
    <path class="cls-2" d="M397.07,232.96c-8.58-14.99-12.62-34.72-20.14-50.86-12.09-25.93-32.57-54.71-57.38-69.62-4.65-2.8-11-4.74-15.24-7.76-5.77-4.1-11.38-12.17-17.05-16.95-4-3.37-16.17-15.02-34.51-19.49-6.22-1.51-11.49-1.83-14.86-1.88-.27,5.18-.2,11.46.74,18.51.84,6.3,2.19,11.79,3.61,16.36-13.46-3.82-25.09-15.13-39.99-13.99-1,.86,13.29,18.99,14.48,22.05.47,1.2.89,1.66.06,2.95-1.13,1.77-14.72,8.23-17.85,10.18-4.17,2.61-13.68,8.2-16.69,11.31-5.72,5.93-5.88,15.44-9.47,22.53-9.65,19.07-53.96,29.59-71.91,41.09-9.19,7.19.95,25.63,4.98,33.75,9.12,18.35,15.74,28.31,37.9,30.1,22.2,1.79,66.5-13.61,73.25,17.76,7.63,35.45-22.51,53.2-30.27,83.25-8.93,34.6,9.77,67.12,41.51,81-14.43-12.87-28.48-27.27-32.54-46.95-9.18-44.56,24.1-64.85,43.71-98.36,11.13-19.03,18-40.23,28.31-59.69,11.72-22.12,27.88-45.45,47.52-60.98-2.27,6.61-6.35,21.77,0,37.5,1.3,3.22,2.86,6.04,4.5,8.48,1.53-1.01,3.05-3.79,4.52-4.46,3.62-1.67,17.75,3.24,21.96,5,21.88,9.13,19.72,25.69,32.99,41.01,4.2,4.84,9.69,8.27,14.01,12.97-14.32,5.9-2.87,5.83-1.19,8.7,1.17,1.99-1.9,13.46-3.05,16.04-8.27,18.5-34.89,10.56-50.12,17.88-20.08,9.65-29.96,38.23-24.13,56.88.9,2.88,2.07,5.14,2.97,6.67,1.52-7.88,2.52-13.38,2.64-15.08.02-.37.1-1.54.91-2.21.23-.19.55-.33.98-.38,4.87,16.66,17.19,32.02,18.89,49.62,2.83,29.17-21.69,52.89-39.88,72.37,32.67-7.34,62.64-23.08,88.47-44.02,61.88-50.15,81.27-112.02,31.35-180.29-7.45-10.19-17.8-20.21-23.99-31.01ZM109.74,214.27c-1.7-1.43-4.15-8.58-2.3-9.79.85-.56,5.52-1.48,5.78.33.17,1.16-2.09,9.44-3.48,9.46ZM311.78,165.33c-23.81,19.6-41.9,44.67-56.06,71.94-7.13,13.72-12.14,28.36-18.77,42.23-2.28,4.78-5.38,10.89-8.71,14.79v-14.5c0-3.71-4.09-13.37-6.2-16.8-14.23-23.14-52.47-11.49-74.47-12.08-13.18-.35-18.95-3.43-26.14-14.32-.94-1.43-6.09-10.99-6.03-11.64.13-1.42,5.33-8.65,6.31-11.69,1.69-5.24.93-9.56,2.51-14.49,16.18-10.05,48.92-17.38,57.84-35.16,3.42-6.82,3.28-16.44,8.28-21.72,6.15-6.48,38.29-24.26,47.52-28.48,2.66-1.22,6.28-3.2,8.95-1.21.76.57,7.73,13.65,9.61,16.4,4.82,7.03,10.35,14.16,16.81,19.68-7.79-21.18-22.07-45-24.95-67.56-.19-1.5-.23-1.71,1.35-1.35,18.72,4.28,42.33,25.83,52.02,41.99,5.9,9.84,17.3,33.74,10.12,43.96ZM379.71,439.26c-13.49,10.68-29.48,20.83-45.47,27.02,16.24-22.82,21.32-42.36,12.02-69.51-6.58-19.21-27.56-43.32-9.53-62.5,13.25-14.11,46.24-2.08,58.73-23.27,3.89-6.61,8.86-26.82,7.85-34.27-.85-6.26-15.09-14.9-19.47-20.53-5.61-7.21-7.6-17.04-12.39-24.61-7.19-11.39-21.32-18.4-34.17-21.35-.48-.68.77-3.36,2.27-6.21,1.82-3.48,2.2-3.96,3.74-7.2,2.46-5.16,3.46-9.65,3.93-11.86.58-2.7.87-5.01,1.02-6.67-3.48,2.09-7.86,4.48-11.62,8.51-4.97,5.33-9.9,11.33-11.36,12.48,2.66-26.23,1.2-51.78-10.01-75.99.88-.94,13.12,8.83,14.47,10.02,28.8,25.64,36.89,54.37,50.78,88.22,11.98,29.21,35.46,45.82,47.6,73.4,26.07,59.21-2.02,107.6-48.39,144.33Z"/>
    <path class="cls-2" d="M360.73,251.31c-.74.03-9.25,8.64-11.48,9.48.01,1.02,11.85,7.03,13.98,5.49-.76-2.08-1.73-4.4-1.92-6.63-.15-1.8,1.44-8.41-.58-8.34Z"/>
    <path class="cls-2" d="M194.24,153.29c3.58,7.83,2.57,13.72,2.01,21.99,3.87-6.08,12.14-7.19,17.33-11.16.78-.59,2.56-1.62,1.65-2.83-.68-.9-20.17-8.78-20.99-8.01Z"/>
  </g>
  <path class="cls-1" d="M45.02,383.05c.65-5.77,2.37-9.72,2.96-11.04,1.52-3.4,3.31-5.97,4.67-7.69,4.17,7.28,5.65,13.77,6.25,17.85,1.22,8.38-.2,15.03-1.13,20.63-.95,5.71-4.72,12.98-5.32,17.72-.82,6.56,12.29,26.86,17.56,32.04-2-5.74-3.25-11.54-3.4-17.34-.13-5.08-.14-11.03,3.22-17.35,1.46-2.74,3.13-4.77,4.4-6.11,1.28,1.67,3.02,4.22,4.51,7.58,2.83,6.36,3.03,11.95,3.26,14.74.8,9.44-2.62,22.49-.77,30.77,1.41,6.31,22.02,26.29,27.78,31.22.98.84,6.25,5.19,7.01,4.48-10-12.56-19.58-29.64-12.5-45.99,9.43,9.56,16.31,21.73,19.04,34.96.97,4.68.76,10.25,1.67,14.33,1.12,5.01,18.9,14.01,24.12,16.88,0,0,14.64,6.14,31.67,15.38.61.33,2.14,1.18,2.01,1.94-.24,1.42-6.18,2.21-8.51,1.59-7.76-2.07-30.15-18.19-35.01-18.03-1.56.05-3.87,2.43-5.79,3.15-15.14,5.71-32.97,8.53-48.21,1.81l9.21-6.81c11.15-7.68,23.66-4.84,36.3-4.69-6.16-2.67-16.25-12.35-21.95-14.05-6.26-1.87-18.29.17-25.53-.47-11.66-1.04-24.64-6.72-32.51-15.49,4.98-2.04,16.27-5.81,29.67-2.67,5.07,1.19,9.23,3.08,12.39,4.89-.85-1.37-2.08-3.26-3.67-5.43-2.79-3.81-5.17-6.4-7.87-9.3-7.82-8.39-11.72-12.7-13.53-13.47-2.88-1.22-9.97-1.22-13.83-2.17-15.89-3.94-27.52-11.62-37.14-24.84,16.47-2.01,25.7,1.67,31.17,5.71,3.74,2.77,11.17,9.74,12.02,8.93.13-.13.07-.42,0-.65-7.01-15.97-15.77-25.42-22.61-31.15-11.56-9.67-22.27-12.57-30.13-25.47-4.22-6.92-5.8-13.72-6.47-18.35,6.74,1.24,15.21,3.99,22.25,10.59,8.09,7.6,10.45,16.7,11.19,16.39,1.05-.44-5.05-18.26-12.65-37.28-4.03-10.1-4.23-9.95-5.63-13.85-3.32-9.3-6.63-23.2-5.65-42.35,12.5,16.16,17.38,30.37,19.49,40.51,1.74,8.33,1.38,12.79,3.24,23.39,2.88,16.43,7.88,29.27,11.68,37.6.32.42.71.83.94.74.36-.14.2-1.38.16-1.73-.37-3.02-.83-14.56,0-22Z"/>
</svg>