<svg width="301" height="301" viewBox="0 0 301 301" fill="none" xmlns="http://www.w3.org/2000/svg">
<path d="M275.714 169.28C284.475 129.836 284.24 93.1227 282.728 58.0342C282.4 50.3919 281.993 44.173 281.722 40.3173C281.69 40.1261 281.576 39.5473 281.08 39.064C280.663 38.6604 280.204 38.5382 280.011 38.4957C250.97 33.7532 222.466 25.9728 195.152 14.9848C180.602 9.13227 165.803 -0.225373 149.669 0.544694C134.499 1.26696 117.316 11.23 102.97 16.7161C86.982 22.8288 70.4877 28.0653 53.8318 31.9953C44.148 34.2789 33.27 35.2986 23.9825 37.7097C21.9436 38.2408 20.3218 38.6444 19.962 41.0502C19.6699 42.994 19.4822 46.8177 19.3883 48.9633C17.7613 84.2271 18.7104 126.767 24.7908 161.409C35.3194 221.416 71.8592 262.819 124.393 289.399C129.43 291.949 147.019 300.605 151.603 300.499C154.779 300.425 168.296 293.855 172.035 292.055C224.01 266.945 262.719 227.831 275.725 169.29L275.714 169.28ZM151.087 294.556C96.5302 274.545 48.2729 234.31 33.8332 175.026C24.9629 138.599 24.7543 101.137 25.6826 63.8761C25.8546 57.057 25.1871 50.1795 26.204 43.4295C51.4851 40.227 76.4638 33.4876 100.363 24.6876C115.799 19.0051 136.642 7.13009 152.641 7.24693C166.523 7.34784 184.43 17.9482 197.618 23.0944C222.712 32.8822 249.296 39.8765 275.897 44.0136C277.018 49.4678 276.304 55.1345 276.47 60.6896C278.249 119.65 278.009 185.414 239.451 233.254C216.485 261.751 184.868 281.89 151.087 294.556Z" fill="#C8B289" stroke="#C8B289" stroke-miterlimit="10"/>
<path d="M288.413 202.791C284.195 206.827 282.964 211.66 282.578 211.495C282.03 211.262 285.211 201.798 289.175 191.697C291.276 186.333 291.38 186.412 292.111 184.341C293.842 179.402 295.568 172.02 295.057 161.85C288.538 170.432 285.994 177.979 284.893 183.364C283.986 187.788 284.174 190.156 283.204 195.786C281.702 204.511 279.095 211.331 277.113 215.754C276.946 215.978 276.743 216.195 276.623 216.147C276.435 216.073 276.518 215.415 276.539 215.229C276.732 213.625 276.972 207.496 276.539 203.545C276.2 200.481 275.303 198.383 274.996 197.682C274.203 195.876 273.27 194.511 272.56 193.598C270.386 197.464 269.614 200.911 269.301 203.078C268.66 207.528 269.406 211.06 269.89 214.034C270.386 217.066 272.352 220.927 272.665 223.445C273.092 226.928 266.256 237.709 263.508 240.46C264.551 237.412 265.202 234.332 265.281 231.251C265.348 228.554 265.354 225.394 263.601 222.037C262.84 220.582 261.969 219.504 261.307 218.792C260.639 219.679 259.732 221.033 258.955 222.818C257.479 226.196 257.375 229.164 257.255 230.646C256.838 235.659 258.621 242.59 257.657 246.987C256.921 250.338 246.174 260.949 243.17 263.568C242.659 264.014 239.911 266.324 239.515 265.947C244.729 259.277 249.725 250.206 246.033 241.522C241.115 246.6 237.528 253.063 236.104 260.089C235.598 262.575 235.708 265.533 235.233 267.699C234.649 270.36 225.377 275.14 222.655 276.664C222.655 276.664 215.021 279.925 206.14 284.832C205.822 285.007 205.024 285.459 205.092 285.862C205.217 286.617 208.315 287.036 209.53 286.707C213.576 285.607 225.252 277.046 227.787 277.131C228.6 277.158 229.805 278.422 230.806 278.804C238.701 281.837 247.999 283.334 255.946 279.766L251.143 276.149C245.329 272.07 238.805 273.579 232.214 273.658C235.426 272.24 240.688 267.099 243.66 266.197C246.925 265.203 253.198 266.287 256.974 265.947C263.054 265.395 269.823 262.378 273.927 257.72C271.33 256.637 265.442 254.635 258.455 256.302C255.811 256.934 253.641 257.938 251.993 258.899C252.437 258.172 253.078 257.168 253.907 256.016C255.362 253.992 256.603 252.617 258.011 251.077C262.089 246.621 264.123 244.332 265.067 243.923C266.569 243.275 270.266 243.275 272.279 242.771C280.565 240.678 286.63 236.599 291.646 229.578C283.058 228.511 278.245 230.465 275.392 232.611C273.442 234.082 269.567 237.784 269.124 237.354C269.056 237.284 269.087 237.13 269.124 237.008C272.779 228.527 277.348 223.508 280.914 220.465C286.943 215.33 292.528 213.789 296.626 206.939C298.827 203.263 299.651 199.652 300 197.193C296.486 197.852 292.069 199.312 288.398 202.817L288.413 202.791Z" fill="#C8B289" stroke="#C8B289" stroke-miterlimit="10"/>
<path d="M270.776 56.9242C270.729 53.759 270.667 51.1408 270.625 49.3935C236.338 43.9074 210.478 35.3677 192.915 28.4105C173.036 20.5399 158.195 10.3325 138.942 16.1744C127.725 19.5786 115.893 25.8879 104.676 30.1365C89.5116 35.8775 73.2832 41.1299 57.4773 44.7359C49.8586 46.4726 42.1564 47.9065 34.4021 48.8518C34.0422 48.8943 32.2797 49.0855 32.1649 49.7387C32.1649 49.7493 32.1649 49.7546 32.1649 49.76C32.1649 49.8024 32.1597 49.9671 32.1597 50.0096C30.7204 101.742 34.6263 150.086 38.5374 167.054C52.3617 226.992 95.7797 266.722 151.082 287.472C203.157 267.546 247.263 229.292 262.266 173.109C267.804 152.365 271.465 103.516 270.782 56.9295L270.776 56.9242ZM164.036 275.416C161.538 276.595 152.699 280.865 150.597 280.775C149.038 280.706 143.443 278.002 141.597 277.179C79.7548 249.632 46.7454 204.66 39.2257 136.076C36.2637 109.06 37.4996 82.1984 37.8803 55.0548C62.6191 50.7106 86.8416 43.8119 110.271 34.7782C118.547 31.5864 126.781 27.4068 135.042 24.4221C158.597 15.9142 168.588 25.3462 189.275 33.716C213.571 43.541 238.69 50.4132 264.44 55.1451C264.67 61.226 264.336 67.344 264.477 73.4355C265.619 123.049 264.399 177.57 234.482 219.159C217.513 242.749 189.984 263.164 164.041 275.411L164.036 275.416Z" fill="#C8B289" stroke="#C8B289" stroke-miterlimit="10"/>
<path d="M207.047 123.957C202.573 115.996 200.466 105.518 196.544 96.9465C190.24 83.1755 179.56 67.891 166.622 59.9726C164.197 58.4856 160.886 57.4553 158.675 55.8514C155.666 53.674 152.74 49.3882 149.784 46.8496C147.698 45.0599 141.351 38.8728 131.788 36.4989C128.544 35.6969 125.796 35.527 124.038 35.5004C123.898 38.2514 123.934 41.5866 124.424 45.3307C124.862 48.6765 125.566 51.5922 126.307 54.0192C119.288 51.9905 113.223 45.984 105.453 46.5894C104.932 47.0461 112.383 56.6746 113.004 58.2997C113.249 58.937 113.468 59.1813 113.035 59.8664C112.446 60.8064 105.359 64.2372 103.727 65.2728C101.552 66.6589 96.5932 69.6277 95.0235 71.2793C92.0407 74.4286 91.9573 79.4792 90.0852 83.2446C85.0529 93.3723 61.9464 98.9592 52.5859 105.067C47.7935 108.885 53.0813 118.678 55.1828 122.991C59.9387 132.736 63.3909 138.026 74.9467 138.976C86.5235 139.927 109.625 131.748 113.145 148.408C117.124 167.235 101.406 176.662 97.3597 192.621C92.703 210.996 102.455 228.267 119.006 235.638C111.481 228.803 104.155 221.156 102.037 210.704C97.2502 187.039 114.605 176.263 124.831 158.467C130.635 148.36 134.218 137.101 139.594 126.767C145.706 115.019 154.133 102.629 164.375 94.3813C163.191 97.8918 161.063 105.943 164.375 114.297C165.052 116.007 165.866 117.505 166.721 118.8C167.519 118.264 168.312 116.788 169.078 116.432C170.966 115.545 178.334 118.152 180.53 119.087C191.94 123.936 190.813 132.731 197.733 140.867C199.923 143.437 202.786 145.259 205.039 147.755C197.572 150.888 203.543 150.851 204.419 152.375C205.029 153.432 203.428 159.524 202.828 160.894C198.516 170.719 184.634 166.502 176.692 170.39C166.221 175.515 161.068 190.693 164.109 200.597C164.578 202.127 165.188 203.327 165.657 204.14C166.45 199.955 166.971 197.034 167.034 196.131C167.044 195.935 167.086 195.313 167.509 194.957C167.629 194.856 167.795 194.782 168.02 194.756C170.559 203.603 176.984 211.761 177.87 221.108C179.346 236.599 166.56 249.197 157.074 259.542C174.11 255.644 189.739 247.285 203.209 236.164C235.478 209.53 245.589 176.672 219.557 140.415C215.672 135.004 210.275 129.682 207.047 123.947V123.957ZM57.2114 114.031C56.3249 113.272 55.0473 109.475 56.012 108.832C56.4552 108.535 58.8905 108.046 59.0261 109.007C59.1148 109.623 57.9362 114.021 57.2114 114.031ZM162.57 88.0402C150.154 98.4494 140.72 111.764 133.336 126.246C129.618 133.533 127.006 141.308 123.548 148.674C122.359 151.212 120.743 154.457 119.006 156.528V148.828C119.006 146.857 116.873 141.727 115.773 139.906C108.352 127.616 88.4112 133.803 76.9388 133.49C70.0657 133.304 67.0568 131.669 63.3074 125.885C62.8172 125.126 60.1316 120.048 60.1629 119.703C60.2307 118.949 62.9424 115.109 63.4534 113.495C64.3347 110.712 63.9384 108.418 64.7623 105.8C73.1998 100.462 90.2729 96.5694 94.9245 87.1268C96.7079 83.5048 96.6349 78.3958 99.2423 75.5917C102.449 72.1503 119.21 62.7077 124.023 60.4665C125.41 59.8186 127.298 58.7671 128.69 59.8239C129.086 60.1266 132.721 67.0732 133.701 68.5336C136.215 72.2671 139.099 76.0537 142.467 78.9853C138.405 67.737 130.958 55.0867 129.457 43.1055C129.357 42.3089 129.337 42.1974 130.161 42.3885C139.923 44.6616 152.235 56.1064 157.288 64.6886C160.364 69.9145 166.309 82.6073 162.565 88.0349L162.57 88.0402ZM197.994 233.519C190.959 239.191 182.621 244.582 174.283 247.869C182.751 235.75 185.4 225.372 180.551 210.954C177.119 200.751 166.179 187.947 175.581 177.761C182.491 170.267 199.694 176.656 206.207 165.403C208.236 161.892 210.828 151.159 210.301 147.203C209.858 143.878 202.432 139.29 200.148 136.3C197.222 132.47 196.185 127.25 193.687 123.23C189.937 117.181 182.569 113.458 175.868 111.891C175.618 111.53 176.269 110.107 177.052 108.593C178.001 106.745 178.199 106.49 179.002 104.769C180.285 102.029 180.806 99.6443 181.051 98.4707C181.354 97.0367 181.505 95.8099 181.583 94.9283C179.768 96.0383 177.484 97.3076 175.524 99.4478C172.932 102.279 170.361 105.465 169.6 106.076C170.987 92.1455 170.225 78.5764 164.38 65.7189C164.839 65.2197 171.221 70.4084 171.925 71.0403C186.944 84.6572 191.163 99.9152 198.406 117.892C204.653 133.405 216.898 142.226 223.228 156.874C236.823 188.319 222.175 214.018 197.994 233.524V233.519Z" fill="#C8B289" stroke="#C8B289" stroke-miterlimit="10"/>
<path d="M188.097 133.703C187.711 133.718 183.273 138.291 182.11 138.737C182.116 139.279 188.29 142.471 189.401 141.653C189.004 140.548 188.498 139.316 188.399 138.132C188.321 137.176 189.15 133.665 188.097 133.703Z" fill="#C8B289" stroke="#C8B289" stroke-miterlimit="10"/>
<path d="M101.275 81.646C103.142 85.8044 102.616 88.9324 102.324 93.3245C104.342 90.0955 108.654 89.506 111.361 87.3976C111.767 87.0843 112.696 86.5373 112.221 85.8946C111.867 85.4167 101.703 81.2318 101.275 81.6407V81.646Z" fill="#C8B289" stroke="#C8B289" stroke-miterlimit="10"/>
<path d="M23.4612 203.667C23.8001 200.603 24.6971 198.505 25.0047 197.804C25.7974 195.998 26.7308 194.633 27.44 193.72C29.6146 197.586 30.3864 201.033 30.6992 203.2C31.3354 207.65 30.595 211.182 30.11 214.156C29.6146 217.188 27.6486 221.049 27.3357 223.567C26.9081 227.051 33.7447 237.832 36.4928 240.583C35.4499 237.534 34.798 234.454 34.7198 231.374C34.652 228.676 34.6468 225.516 36.399 222.159C37.1603 220.704 38.0312 219.626 38.6935 218.914C39.361 219.801 40.2683 221.156 41.0453 222.94C42.5211 226.318 42.6254 229.286 42.7453 230.768C43.1625 235.782 41.3791 242.712 42.3438 247.11C43.0791 250.461 53.8267 261.072 56.8304 263.69C57.3414 264.136 60.0896 266.446 60.4859 266.069C55.2712 259.399 50.2754 250.328 53.9675 241.645C58.885 246.722 62.4727 253.185 63.8964 260.211C64.4022 262.697 64.2927 265.655 64.7672 267.822C65.3513 270.482 74.6231 275.262 77.3452 276.786C77.3452 276.786 84.9796 280.047 93.8603 284.954C94.1784 285.13 94.9763 285.581 94.9085 285.985C94.7833 286.739 91.6858 287.158 90.4707 286.829C86.4241 285.73 74.7483 277.169 72.2139 277.254C71.4004 277.28 70.1958 278.544 69.1945 278.927C61.2994 281.959 52.0015 283.457 44.0542 279.888L48.857 276.271C54.6715 272.192 61.1951 273.701 67.7866 273.78C64.5743 272.362 59.3126 267.222 56.3402 266.319C53.0758 265.326 46.8024 266.409 43.0269 266.069C36.9465 265.517 30.1778 262.5 26.0738 257.843C28.6707 256.759 34.5582 254.757 41.5459 256.425C44.1898 257.057 46.3591 258.06 48.007 259.022C47.5638 258.294 46.9223 257.29 46.0932 256.138C44.6383 254.114 43.3972 252.739 41.9892 251.199C37.9113 246.743 35.8775 244.454 34.9336 244.045C33.4318 243.397 29.7345 243.397 27.7216 242.893C19.4354 240.8 13.3706 236.722 8.35403 229.701C16.9427 228.633 21.7559 230.588 24.6084 232.733C26.5587 234.204 30.4333 237.906 30.8766 237.476C30.9443 237.407 30.9131 237.253 30.8766 237.131C27.221 228.649 22.6529 223.63 19.086 220.587C13.0577 215.452 7.47274 213.912 3.37394 207.061C1.17332 203.386 0.349388 199.774 0 197.315C3.51474 197.974 7.93164 199.434 11.6028 202.94C15.8216 206.976 17.0522 211.809 17.4381 211.644C17.9857 211.41 14.8047 201.946 10.8415 191.845C8.73992 186.481 8.63563 186.561 7.90556 184.49C6.17427 179.551 4.44818 172.169 4.95923 161.999C11.4777 170.581 14.0225 178.127 15.1228 183.513C16.0301 187.937 15.8424 190.305 16.8124 195.935C18.3142 204.66 20.9216 211.479 22.9032 215.903C23.0701 216.126 23.2734 216.344 23.3934 216.296C23.5811 216.222 23.4977 215.563 23.4768 215.377C23.2839 213.774 23.044 207.645 23.4768 203.694L23.4612 203.667Z" fill="#C8B289"/>
</svg>
